<svg id="Layer_1" data-name="Layer 1" xmlns="http://www.w3.org/2000/svg" xmlns:xlink="http://www.w3.org/1999/xlink" viewBox="0 0 340.76 238.3"><defs><style>.cls-1{fill:none;}.cls-2{clip-path:url(#clip-path);}.cls-3,.cls-4{fill:#47b649;}.cls-3,.cls-7{fill-rule:evenodd;}.cls-4{font-size:149.06px;}.cls-4,.cls-5,.cls-6{font-family:HelveticaNeue-Light, Helvetica Neue;}.cls-5,.cls-6{font-size:151.09px;stroke:#99999a;stroke-miterlimit:10;}.cls-5,.cls-6,.cls-7,.cls-8{fill:#99999b;}.cls-5{stroke-width:6px;}.cls-6{stroke-width:5px;}</style><clipPath id="clip-path" transform="translate(-37.79 -22.69)"><rect class="cls-1" x="1.15" y="4.09" width="399.68" height="273.3"/></clipPath></defs><title>logosolo</title><g class="cls-2"><path class="cls-3" d="M153.43,95.44c-16.93,0-26,9.07-26,21.76,0,7.1,2.57,13.29,9.37,21.76l15.26,17.67c6.64,7.71,8.76,12.7,8.76,19.65,0,9.21-4.08,15.41-14.81,15.41-7.25,0-12.39-2.42-15.56-5.29L124.28,197c4,2.72,10.53,7.21,22.8,7.21,20.55,0,27-13.15,27-28.41,0-9.36-2.27-16.16-10.13-25.53L147.68,131.7c-4.53-5.44-7-9.36-7-14.95,0-6.5,5.75-10.43,14.66-10.43a34.42,34.42,0,0,1,7.6.85L166.86,97a47.33,47.33,0,0,0-13.43-1.52" transform="translate(-37.79 -22.69)"/><text class="cls-4" transform="translate(135.83 180.64) scale(1.01 1)">I</text><path class="cls-3" d="M238.61,95.59c-20,0-32.34,9.37-32.34,56.66,0,42.46,8.16,51.83,28.41,51.83,2.93,0,5.15,0,7,0,1.19-.12,2-.69,2-2.39v2.42h0c3.62.06,6.21.1,11.59-.07l.15-63.46H235.59c-2,0-2.88.9-2.88,2.57V151h11v37.47c-.75,1.21-3.47,3.63-8.76,3.63-9.82,0-15.56-4.83-15.56-40.64,0-33.85,6.34-44.27,21.76-44.27a24,24,0,0,1,4.4.4l3.86-10.21a28.72,28.72,0,0,0-10.83-1.83" transform="translate(-37.79 -22.69)"/><text class="cls-5" transform="translate(221.8 180.03) scale(0.53 1)">L</text><text class="cls-6" transform="translate(274.12 180.03) scale(0.64 1)">A</text><path class="cls-3" d="M190.29,75.59a7.23,7.23,0,1,1-7.22,7.23,7.23,7.23,0,0,1,7.22-7.23" transform="translate(-37.79 -22.69)"/><path class="cls-7" d="M42.91,22.69a5.13,5.13,0,1,1-5.12,5.13,5.13,5.13,0,0,1,5.12-5.13" transform="translate(-37.79 -22.69)"/><path class="cls-7" d="M96,250.75a5.13,5.13,0,1,1-5.12,5.12A5.12,5.12,0,0,1,96,250.75" transform="translate(-37.79 -22.69)"/><polygon class="cls-8" points="135.41 56.3 17.23 10.88 17.96 8.95 136.15 54.38 135.41 56.3"/><rect class="cls-8" x="68.42" y="38.04" width="2.07" height="207.62" transform="translate(-68.14 -3.26) rotate(-13.1)"/><path class="cls-8" d="M157.74,137.73l21.56-40.3,1.82,1-21.56,40.3Zm-23.65,44.4,11.29-21.21,1.83,1-11.3,21.21ZM101.41,243.5l20.26-38.05,1.82,1-20.26,38.05Z" transform="translate(-37.79 -22.69)"/></g></svg>