<?xml version="1.0" encoding="UTF-8" standalone="no"?>
<svg
   xmlns:dc="http://purl.org/dc/elements/1.1/"
   xmlns:cc="http://creativecommons.org/ns#"
   xmlns:rdf="http://www.w3.org/1999/02/22-rdf-syntax-ns#"
   xmlns:svg="http://www.w3.org/2000/svg"
   xmlns="http://www.w3.org/2000/svg"
   xmlns:sodipodi="http://sodipodi.sourceforge.net/DTD/sodipodi-0.dtd"
   xmlns:inkscape="http://www.inkscape.org/namespaces/inkscape"
   height="512"
   viewBox="0 0 58 58"
   width="512"
   version="1.1"
   id="svg40"
   sodipodi:docname="milk.svg"
   inkscape:version="0.92.3 (2405546, 2018-03-11)">
  <metadata
     id="metadata46">
    <rdf:RDF>
      <cc:Work
         rdf:about="">
        <dc:format>image/svg+xml</dc:format>
        <dc:type
           rdf:resource="http://purl.org/dc/dcmitype/StillImage" />
      </cc:Work>
    </rdf:RDF>
  </metadata>
  <defs
     id="defs44">
    <clipPath
       clipPathUnits="userSpaceOnUse"
       id="clipPath50">
      <path
         style="fill:none;stroke:#000000;stroke-width:0.11328125px;stroke-linecap:butt;stroke-linejoin:miter;stroke-opacity:1"
         d="M 0.24576271,57.754237 0,18 11,6 11.305085,-0.24576271 27.771186,0 28,6 39,18 38.902491,34.190833 58.404451,34.110426 54.25,49 l 0.309322,7.525424 -1.70543,1.53165 z"
         id="path52"
         inkscape:connector-curvature="0"
         sodipodi:nodetypes="ccccccccccccc" />
    </clipPath>
  </defs>
  <sodipodi:namedview
     pagecolor="#ffffff"
     bordercolor="#666666"
     borderopacity="1"
     objecttolerance="10"
     gridtolerance="10"
     guidetolerance="10"
     inkscape:pageopacity="0"
     inkscape:pageshadow="2"
     inkscape:window-width="1360"
     inkscape:window-height="741"
     id="namedview42"
     showgrid="false"
     inkscape:zoom="0.921875"
     inkscape:cx="78.056073"
     inkscape:cy="214.79062"
     inkscape:window-x="1920"
     inkscape:window-y="0"
     inkscape:window-maximized="1"
     inkscape:current-layer="svg40" />
  <g
     id="Page-1"
     fill="none"
     fill-rule="evenodd"
     clip-path="url(#clipPath50)"
     inkscape:export-filename="/home/daniu/Documentos/sigla/web/public/img/bovinos.png"
     inkscape:export-xdpi="250"
     inkscape:export-ydpi="250">
    <g
       id="034---Milk-and-Jug"
       fill-rule="nonzero">
      <path
         id="Shape"
         d="m28 6v-5c0-.55228475-.4477153-1-1-1h-15c-.5522847 0-1 .44771525-1 1v5l-11 12v38c0 1.1045695.8954305 2 2 2h37v-40z"
         fill="#2980ba" />
      <path
         id="path3"
         d="m22 18v40h-20c-1.1045695 0-2-.8954305-2-2v-38z"
         fill="#3b97d3" />
      <path
         id="path5"
         d="m39 18h-17l-11-12h17z"
         fill="#285680" />
      <path
         id="path7"
         d="m16 32 .0000113 4.76c-.7398333-.495024-1.6098511-.7595095-2.5000113-.76h-5c-.89016017.0004905-1.76017801.264976-2.50001125.76l.00001125-4.76c-.00265674-1.2451208.46525642-2.4452645 1.31-3.36.02100473-.0374933.04803198-.0712773.08-.1.9314238-.9699035 2.21358651-1.5247509 3.5582191-1.5397958 1.3446325-.0150448 2.6388889.5109756 3.5917809 1.4597958.02.03.05.05.07.08.031968.0287227.0589953.0625067.08.1.8447436.9147355 1.3126567 2.1148792 1.31 3.36z"
         fill="#ecf0f1" />
      <path
         id="path9"
         d="m18 40.5c-.0038545 2.483683-2.016317 4.4961455-4.5 4.5h-5c-2.48528137 0-4.5-2.0147186-4.5-4.5s2.01471863-4.5 4.5-4.5h5c1.1934742 0 2.3380668.4741058 3.1819805 1.3180195s1.3180195 1.9885063 1.3180195 3.1819805z"
         fill="#fb7b76" />
      <circle
         id="Oval"
         cx="9"
         cy="32"
         fill="#393f4a"
         r="1" />
      <circle
         id="circle12"
         cx="13"
         cy="32"
         fill="#393f4a"
         r="1" />
      <path
         id="path14"
         d="m9 42c-.55228475 0-1-.4477153-1-1v-1c0-.5522847.44771525-1 1-1s1 .4477153 1 1v1c0 .5522847-.44771525 1-1 1z"
         fill="#802f34" />
      <path
         id="path16"
         d="m13 42c-.5522847 0-1-.4477153-1-1v-1c0-.5522847.4477153-1 1-1s1 .4477153 1 1v1c0 .5522847-.4477153 1-1 1z"
         fill="#802f34" />
      <path
         id="path18"
         d="m7.31 28.64c-.84474358.9147355-1.31265674 2.1148792-1.31 3.36v.82c-4.89-2.72-2.33-7.82-2.33-7.82z"
         fill="#464f5d" />
      <path
         id="path20"
         d="m16 32.82v-.82c.0026567-1.2451208-.4652564-2.4452645-1.31-3.36l3.64-3.64s2.56 5.1-2.33 7.82z"
         fill="#464f5d" />
      <path
         id="path22"
         d="m45 31c-.5522847 0-1-.4477153-1-1 .0182651-1.0160719.5074633-1.9660178 1.324-2.571.481-.441.676-.638.676-1.1s-.2-.657-.676-1.1c-.8309032-.5922319-1.3242151-1.5496379-1.3242151-2.57s.4933119-1.9777681 1.3242151-2.57c.48-.44.675-.636.675-1.094 0-.5522847.4477153-1 1-1s1 .4477153 1 1c-.0188138 1.0156161-.508398 1.9648551-1.325 2.569-.48.44-.675.637-.675 1.094s.2.656.676 1.1c.8309154.5926703 1.3241726 1.5503734 1.3241726 2.571s-.4932572 1.9783297-1.3241726 2.571c-.475.443-.675.641-.675 1.1 0 .5522847-.4477153 1-1 1z"
         fill="#e64c3c" />
      <path
         id="path24"
         d="m51 31c-.5522847 0-1-.4477153-1-1 .0182651-1.0160719.5074633-1.9660178 1.324-2.571.481-.441.676-.638.676-1.1s-.2-.657-.676-1.1c-.8309032-.5922319-1.3242151-1.5496379-1.3242151-2.57s.4933119-1.9777681 1.3242151-2.57c.48-.44.675-.636.675-1.094 0-.5522847.4477153-1 1-1s1 .4477153 1 1c-.0188138 1.0156161-.508398 1.9648551-1.325 2.569-.48.44-.675.637-.675 1.094s.2.656.676 1.1c.8309154.5926703 1.3241726 1.5503734 1.3241726 2.571s-.4932572 1.9783297-1.3241726 2.571c-.475.443-.675.641-.675 1.1 0 .5522847-.4477153 1-1 1z"
         fill="#e64c3c" />
      <path
         id="path26"
         d="m7 55h-3c-.55228475 0-1-.4477153-1-1v-3c0-.5522847.44771525-1 1-1s1 .4477153 1 1v2h2c.55228475 0 1 .4477153 1 1s-.44771525 1-1 1z"
         fill="#fff" />
      <path
         id="path28"
         d="m36.75 50h-3.07c-1.1175516-.0022429-2.1834172-.4709749-2.9404139-1.2930957-.7569966-.8221208-1.1363719-1.9229631-1.0465861-3.0369043l.5-6c.1831419-2.0687398 1.9102013-3.6584835 3.987-3.67h3.57c.5522847 0 1 .4477153 1 1s-.4477153 1-1 1h-3.57c-1.0377823.0052169-1.9011545.7992767-1.993 1.833l-.5 6c-.0448576.5570693.1447105 1.1075977.523033 1.5189498.3783224.4113521.9110975.6462315 1.469967.6480502h3.07c.5522847 0 1 .4477153 1 1s-.4477153 1-1 1z"
         fill="#95a5a5" />
      <path
         id="path30"
         d="m57.97 35.24-2.19 8.09-1.53 5.67.01.13.47 5.62c.0677624.8357533-.216511 1.6618424-.7842201 2.2789175s-1.3672864.9690847-2.2057799.9710825h-13.48c-.8391824.0001216-1.6400539-.35125-2.2082279-.9688304-.5681739-.6175803-.851704-1.4449061-.7817721-2.2811696l1.5-18c.1300083-1.5546737 1.4298999-2.7502261 2.99-2.75h17.24c.307341.0002375.597502.1417889.7868662.3838627s.2568957.557779.1831338.8561373z"
         fill="#bdc3c7" />
      <g
         fill="#95a5a5"
         id="g36">
        <path
           id="path32"
           d="m50.649 55h-2.649c-.5522847 0-1-.4477153-1-1s.4477153-1 1-1h1.562l-.162-1.95c-.033411-.3580782.1280281-.7065192.4227987-.9125447.2947707-.2060256.6774685-.2379011 1.0022613-.0834799s.5416519.4713532.56794.8300246l.253 3.033c.0232621.2792785-.0717331.5555025-.2618496.7613988-.1901166.2058962-.4579065.3225683-.7381504.3216012z" />
        <path
           id="path34"
           d="m54.25 49 .01.13c-.0080837-.0153542-.0115564-.0327178-.01-.05l-.83-9.95c-.0441828-.5522847.3677153-1.0358172.92-1.08s1.0358172.3677153 1.08.92l.36 4.36z" />
      </g>
    </g>
  </g>
</svg>
